<svg width="16" height="6" viewBox="0 0 16 6" fill="none" xmlns="http://www.w3.org/2000/svg">
<g clip-path="url(#clip0_460_370)">
<path d="M15.999 5.71037V0.925926L15.0594 0H0V3.47363L0.901926 4.63318H9.69526L10.2105 5.71156H16L15.999 5.71037Z" fill="#2B2B2B"/>
<path d="M0.326172 1.67496C0.326172 2.46548 0.967061 3.10652 1.75773 3.10652C2.54825 3.10652 3.18928 2.46563 3.18928 1.67496V0.243557H0.326172V1.67496Z" fill="white"/>
<path d="M8.49213 1.58326H6.58606V3.10652H8.49213V1.58326Z" fill="white"/>
<path d="M8.49213 0.243557H6.58606V1.19274H8.49213V0.243557Z" fill="white"/>
<path d="M3.42163 0.243557V3.10652L3.95126 2.59111L6.28474 3.10652V0.243557L5.75511 1.14548L3.42163 0.243557Z" fill="white"/>
<path d="M11.6565 0.243557H8.79358V1.58326H9.2721V3.10652H11.178V1.58326H11.6565V0.243557Z" fill="white"/>
<path d="M13.3894 0.243557H11.9578V0.335261C11.9578 1.12578 12.5987 1.76682 13.3894 1.76682H11.5608V3.10652H14.8209V0.243557H13.3894Z" fill="white"/>
<path d="M10.1901 4.37852V3.60074H10.6247V3.72933H10.347V3.9123H10.6084V4.04089H10.347V4.37852H10.1901Z" fill="white"/>
<path d="M10.8032 3.60074H11.2379V3.72933H10.9601V3.9123H11.2216V4.04089H10.9601V4.25008H11.2487V4.37867H10.8032V3.60089V3.60074Z" fill="white"/>
<path d="M11.4057 4.13571H11.5626V4.15852C11.5626 4.19852 11.57 4.22845 11.5849 4.24845C11.5997 4.26845 11.6269 4.27837 11.6661 4.27837C11.6922 4.27837 11.7144 4.27008 11.7326 4.25334C11.7507 4.2366 11.7599 4.21304 11.7599 4.18252C11.7599 4.13245 11.7403 4.09941 11.7011 4.08341L11.5845 4.0366C11.5257 4.01334 11.483 3.98474 11.4565 3.95052C11.43 3.91645 11.4168 3.87097 11.4168 3.81437C11.4168 3.73956 11.4378 3.68282 11.4799 3.64385C11.522 3.60504 11.5812 3.58563 11.6574 3.58563C11.7335 3.58563 11.7901 3.60267 11.8332 3.63689C11.8765 3.67111 11.898 3.72371 11.898 3.79482V3.8166H11.7476C11.7476 3.73956 11.7193 3.70119 11.6626 3.70119C11.603 3.70119 11.5732 3.73126 11.5732 3.79156C11.5732 3.81704 11.5787 3.83748 11.5895 3.85304C11.6005 3.8686 11.6218 3.88341 11.6538 3.89719L11.7747 3.94948C11.8313 3.97497 11.8701 4.00311 11.8913 4.03393C11.9123 4.06474 11.9229 4.10534 11.9229 4.15541C11.9229 4.31437 11.8328 4.39393 11.6528 4.39393C11.5664 4.39393 11.5036 4.37467 11.4643 4.33615C11.4251 4.29763 11.4055 4.24134 11.4055 4.16726V4.13571H11.4057Z" fill="white"/>
<path d="M12.069 3.60074H12.5657V3.72933H12.3958V4.37852H12.2389V3.72933H12.069V3.60074Z" fill="white"/>
<path d="M12.9065 4.37852H12.7496V3.60074H12.9065V4.37852Z" fill="white"/>
<path d="M13.0809 3.60074H13.2486L13.3587 4.17585H13.362L13.4774 3.60074H13.6397L13.4611 4.37852H13.2596L13.0809 3.60074Z" fill="white"/>
<path d="M13.7018 4.37852L13.9077 3.60074H14.1016L14.3076 4.37852H14.1442L14.1082 4.21408H13.9012L13.8652 4.37852H13.7018ZM14.0036 3.73585L13.9284 4.08548H14.0809L14.0058 3.73585H14.0036Z" fill="white"/>
<path d="M14.9054 4.37852H14.4707V3.60074H14.6276V4.24993H14.9054V4.37852Z" fill="white"/>
</g>
<defs>
<clipPath id="clip0_460_370">
<rect width="16" height="5.71156" fill="white"/>
</clipPath>
</defs>
</svg>
