<svg width="25" height="27" viewBox="0 0 25 27" fill="none" xmlns="http://www.w3.org/2000/svg">
<path fill-rule="evenodd" clip-rule="evenodd" d="M8.07242 24.6676C5.76865 24.0211 3.35667 23.6949 1.0169 23.3962C0.51295 23.3335 0.045066 23.6831 0.00906949 24.1755C-0.0629235 24.6683 0.297252 25.119 0.765206 25.1816C3.03298 25.4692 5.37254 25.777 7.56833 26.3994C8.03628 26.5343 8.54045 26.2565 8.68443 25.7784C8.82842 25.3007 8.54037 24.8029 8.07242 24.6676Z" fill="black"/>
<path fill-rule="evenodd" clip-rule="evenodd" d="M15.0555 15.5018C11.3478 11.7182 7.17225 8.42166 3.53661 4.53656C3.21264 4.17371 2.63669 4.15427 2.27673 4.493C1.91676 4.83209 1.88091 5.40227 2.24087 5.76511C5.87652 9.66137 10.0521 12.9687 13.7597 16.7635C14.1197 17.1177 14.6955 17.1227 15.0555 16.7743C15.3794 16.4262 15.4154 15.856 15.0555 15.5018Z" fill="black"/>
<path fill-rule="evenodd" clip-rule="evenodd" d="M22.0033 0.948781C22.1112 3.11433 22.219 5.27988 22.327 7.44578C22.327 7.94181 22.7592 8.32482 23.2631 8.3007C23.7671 8.27622 24.1268 7.85398 24.1268 7.35759C24.0188 5.18845 23.9111 3.01966 23.8031 0.850869C23.7671 0.354838 23.3351 -0.025645 22.8311 0.00135233C22.3631 0.0283497 21.9673 0.453109 22.0033 0.948781Z" fill="black"/>
</svg>
