<svg xmlns="http://www.w3.org/2000/svg" width="132" height="32" viewBox="0 0 132 32" fill="none">
<path d="M38.4605 22.597H47.7889V19.7873H41.776V9.20386H38.4605V22.597Z" fill="#3C2B1F"/>
<path d="M53.3157 20.7238C51.9858 20.7238 51.2927 19.5625 51.2927 17.8204C51.2927 16.0784 51.9858 14.8983 53.3157 14.8983C54.6457 14.8983 55.3575 16.0784 55.3575 17.8204C55.3575 19.5625 54.6457 20.7238 53.3157 20.7238ZM53.3345 22.8967C56.4252 22.8967 58.4482 20.7051 58.4482 17.8204C58.4482 14.9358 56.4252 12.7441 53.3345 12.7441C50.2625 12.7441 48.202 14.9358 48.202 17.8204C48.202 20.7051 50.2625 22.8967 53.3345 22.8967Z" fill="#3C2B1F"/>
<path d="M63.798 25.9125C65.2216 25.9125 66.4766 25.594 67.3195 24.8448C68.0875 24.1517 68.5933 23.1027 68.5933 21.6604V13.0063H65.6711V14.0366H65.6337C65.0717 13.2311 64.2101 12.7253 62.9363 12.7253C60.5574 12.7253 58.909 14.7109 58.909 17.5207C58.909 20.4615 60.9133 22.0725 63.0674 22.0725C64.2288 22.0725 64.9593 21.6042 65.5213 20.9673H65.5962V21.9226C65.5962 23.084 65.053 23.7583 63.7605 23.7583C62.749 23.7583 62.2432 23.3275 62.0747 22.8217H59.115C59.4148 24.826 61.1568 25.9125 63.798 25.9125ZM63.7792 19.8059C62.6366 19.8059 61.8873 18.8693 61.8873 17.427C61.8873 15.9659 62.6366 15.0293 63.7792 15.0293C65.053 15.0293 65.7273 16.1158 65.7273 17.4083C65.7273 18.757 65.1092 19.8059 63.7792 19.8059Z" fill="#3C2B1F"/>
<path d="M74.6018 20.7238C73.2718 20.7238 72.5788 19.5625 72.5788 17.8204C72.5788 16.0784 73.2718 14.8983 74.6018 14.8983C75.9317 14.8983 76.6435 16.0784 76.6435 17.8204C76.6435 19.5625 75.9317 20.7238 74.6018 20.7238ZM74.6205 22.8967C77.7113 22.8967 79.7339 20.7051 79.7339 17.8204C79.7339 14.9358 77.7113 12.7441 74.6205 12.7441C71.5485 12.7441 69.488 14.9358 69.488 17.8204C69.488 20.7051 71.5485 22.8967 74.6205 22.8967Z" fill="#3C2B1F"/>
<path d="M80.626 22.597H83.6793V13.0064H80.626V22.597ZM80.626 11.6764H83.6793V9.20386H80.626V11.6764Z" fill="#3C2B1F"/>
<path d="M85.0038 25.7626H88.057V21.6042H88.0945C88.6939 22.4096 89.5743 22.8967 90.8106 22.8967C93.3207 22.8967 94.9878 20.9111 94.9878 17.8016C94.9878 14.917 93.433 12.7253 90.8855 12.7253C89.5743 12.7253 88.6377 13.306 87.9821 14.1677H87.9259V13.0063H85.0038V25.7626ZM90.0239 20.5365C88.7127 20.5365 87.9634 19.4688 87.9634 17.914C87.9634 16.3593 88.6377 15.1792 89.9677 15.1792C91.2789 15.1792 91.897 16.2656 91.897 17.914C91.897 19.5437 91.1852 20.5365 90.0239 20.5365Z" fill="#3C2B1F"/>
<path d="M99.9586 22.8967C102.469 22.8967 104.323 21.8102 104.323 19.7123C104.323 17.2584 102.338 16.8276 100.652 16.5466C99.4341 16.3218 98.3477 16.2282 98.3477 15.5538C98.3477 14.9544 98.9284 14.6734 99.6777 14.6734C100.521 14.6734 101.101 14.9357 101.214 15.7973H104.023C103.874 13.9054 102.412 12.7253 99.6964 12.7253C97.4298 12.7253 95.5567 13.7743 95.5567 15.7973C95.5567 18.0451 97.3362 18.4947 99.0033 18.7757C100.277 19.0005 101.438 19.0941 101.438 19.9558C101.438 20.5739 100.858 20.9111 99.9399 20.9111C98.9284 20.9111 98.2915 20.4428 98.1791 19.4875H95.2944C95.3881 21.6042 97.1489 22.8967 99.9586 22.8967Z" fill="#3C2B1F"/>
<path d="M108.471 22.878C109.801 22.878 110.644 22.3535 111.337 21.4169H111.393V22.597H114.315V13.0063H111.262V18.3636C111.262 19.5063 110.625 20.293 109.576 20.293C108.602 20.293 108.133 19.7123 108.133 18.6633V13.0063H105.099V19.3002C105.099 21.4356 106.26 22.878 108.471 22.878Z" fill="#3C2B1F"/>
<path d="M115.643 22.597H118.697V17.221C118.697 16.0783 119.259 15.2729 120.214 15.2729C121.132 15.2729 121.563 15.8723 121.563 16.9025V22.597H124.616V17.221C124.616 16.0783 125.159 15.2729 126.133 15.2729C127.051 15.2729 127.482 15.8723 127.482 16.9025V22.597H130.535V16.3593C130.535 14.2051 129.449 12.7253 127.276 12.7253C126.039 12.7253 125.009 13.2498 124.26 14.4112H124.222C123.735 13.381 122.78 12.7253 121.525 12.7253C120.139 12.7253 119.221 13.381 118.622 14.3737H118.566V13.0063H115.643V22.597Z" fill="#3C2B1F"/>
<path d="M19.8322 1.54298L16.7625 0.720459L14.1757 10.3748L11.8402 1.65879L8.77051 2.48132L11.2938 11.8983L5.00884 5.61332L2.76167 7.86049L9.6555 14.7544L1.07033 12.454L0.247803 15.5236L9.62819 18.0371C9.52079 17.5739 9.46397 17.0912 9.46397 16.5953C9.46397 13.085 12.3096 10.2393 15.82 10.2393C19.3303 10.2393 22.1759 13.085 22.1759 16.5953C22.1759 17.088 22.1198 17.5677 22.0137 18.0282L30.5388 20.3125L31.3613 17.2428L21.9436 14.7193L30.5293 12.4188L29.7068 9.34912L20.2895 11.8724L26.5744 5.58752L24.3273 3.34035L17.5291 10.1386L19.8322 1.54298Z" fill="#3C2B1F"/>
<path d="M22.0054 18.064C21.7422 19.1766 21.1866 20.1762 20.4242 20.9771L26.6002 27.1531L28.8474 24.906L22.0054 18.064Z" fill="#3C2B1F"/>
<path d="M20.3617 21.0417C19.5901 21.8298 18.6151 22.4179 17.5216 22.721L19.7689 31.1081L22.8386 30.2855L20.3617 21.0417Z" fill="#3C2B1F"/>
<path d="M17.407 22.7515C16.8996 22.882 16.3679 22.9513 15.8199 22.9513C15.2328 22.9513 14.6643 22.8717 14.1246 22.7227L11.8752 31.1174L14.9449 31.9399L17.407 22.7515Z" fill="#3C2B1F"/>
<path d="M14.0162 22.6916C12.9394 22.3735 11.9817 21.7779 11.2259 20.9875L5.03467 27.1788L7.28184 29.4259L14.0162 22.6916Z" fill="#3C2B1F"/>
<path d="M11.1741 20.9329C10.4313 20.1376 9.89014 19.1514 9.63258 18.0559L1.07971 20.3477L1.90223 23.4173L11.1741 20.9329Z" fill="#3C2B1F"/>
</svg>