<svg xmlns="http://www.w3.org/2000/svg" width="126" height="32" viewBox="0 0 126 32" fill="none">
<path d="M23.9795 13.5002C26.3704 13.5002 26.9083 14.5387 26.9083 15.834C26.9083 17.2069 26.2576 18.1905 23.9894 18.1905C21.7357 18.1905 21.0843 17.2641 21.0843 15.834C21.0843 14.4267 21.7944 13.5002 23.9795 13.5002Z" fill="#3D3A2C"/>
<path d="M48.9656 13.5002C51.3564 13.5002 51.8943 14.5387 51.8943 15.834C51.8943 17.2069 51.2429 18.1905 48.9755 18.1905C46.7225 18.1905 46.0703 17.2641 46.0703 15.834C46.0703 14.4267 46.7804 13.5002 48.9656 13.5002Z" fill="#3D3A2C"/>
<path fill-rule="evenodd" clip-rule="evenodd" d="M2.8114 29.3333V2.32153H123.633V29.3333H2.8114ZM60.3947 27.8095H122.109V3.84534H60.3947V27.8095ZM23.991 20.4899C28.2356 20.4899 30.02 18.6591 30.02 15.7996C30.02 12.8937 28.0101 11.1665 23.991 11.1665C20.0337 11.1665 17.9506 13.0423 17.9506 15.7996C17.9506 18.9112 20.1358 20.4899 23.991 20.4899ZM9.23368 11.3722V20.3528H17.8005V17.9612H12.3331V11.3722H9.23368ZM39.6078 20.3528L39.5278 19.4827C38.4909 20.2226 37.2289 20.5788 35.9582 20.4899C34.0482 20.4899 32.4573 19.9177 31.5651 18.7627C30.9766 17.9194 30.6795 16.9071 30.7186 15.8796C30.6852 14.8737 30.9926 13.886 31.591 13.0766C32.4939 11.9558 34.1304 11.2122 36.567 11.2122C39.3701 11.2122 41.0173 12.0701 41.7259 13.5116C41.8779 13.8511 41.9673 14.2153 41.9895 14.5867H39.0242C38.9494 14.361 38.8104 14.1621 38.6242 14.0145C38.0334 13.6229 37.3281 13.4418 36.6219 13.5002C36.2076 13.45 35.7873 13.4882 35.389 13.6125C34.9907 13.7368 34.6232 13.9442 34.311 14.221C33.9564 14.7063 33.7899 15.3038 33.8424 15.9025C33.8013 16.4737 33.9544 17.0421 34.2767 17.5154C34.5918 17.809 34.9663 18.0313 35.3749 18.1676C35.7835 18.3037 36.2165 18.3506 36.6447 18.3048C37.4952 18.374 38.3397 18.1116 39.0013 17.5726C39.1434 17.3949 39.2414 17.186 39.287 16.9631H36.0962V15.0332H42.0672V20.3528H39.6078ZM48.9769 20.4899C53.2207 20.4899 55.0059 18.6591 55.0059 15.7996C55.0059 12.8937 52.9928 11.1665 48.9769 11.1665C45.0196 11.1665 42.9365 13.0423 42.9365 15.7996C42.9365 18.9112 45.1217 20.4899 48.9769 20.4899Z" fill="#3D3A2C"/>
<path d="M65.6154 20.3185V11.3379H67.8249V20.3185H65.6154Z" fill="#3D3A2C"/>
<path d="M79.1712 16.5659C78.6112 17.2981 77.6474 17.6326 76.2889 17.641C76.0024 17.641 72.2043 17.6296 72.2043 17.6296V20.3183H70.0421V11.3378H76.2897C76.7904 11.2848 77.2969 11.3379 77.7754 11.4936C78.2546 11.6493 78.695 11.9041 79.0691 12.2414C79.5628 12.8846 79.8028 13.6866 79.7441 14.4951C79.7944 15.2305 79.5925 15.9611 79.1712 16.5659ZM77.3982 13.6379C77.1697 13.2951 76.6767 13.1046 75.8424 13.1046H72.1929V15.8383H75.8188C76.711 15.8383 77.1811 15.6555 77.3982 15.3004C77.527 15.0503 77.5826 14.7686 77.5582 14.4882C77.5773 14.1958 77.5224 13.9033 77.3982 13.6379Z" fill="#3D3A2C"/>
<path d="M86.1159 20.4555C82.0428 20.4555 80.7963 18.9317 80.7963 17.4239H83.1072C83.1072 18.1675 84.1251 18.7283 86.2188 18.7283C88.3003 18.7283 88.8497 18.3618 88.8497 17.7668C88.8497 17.1032 88.4382 16.8974 86.5045 16.6803C86.1236 16.646 85.0866 16.5203 84.6973 16.4632C81.9544 16.1538 80.8984 15.3416 80.8984 13.8887C80.8984 12.3557 82.4436 11.2007 85.7952 11.2007C89.4333 11.2007 90.8291 12.6308 90.8291 14.118H88.5434C88.5434 13.363 87.6855 12.9279 85.6603 12.9279C83.578 12.9279 83.1323 13.2136 83.1323 13.7744C83.1323 14.358 83.5895 14.5409 85.799 14.8037C86.3026 14.8731 87.4234 14.9988 87.7319 15.0323C90.0664 15.2723 91.1186 16.1188 91.1186 17.6174C91.1148 19.4026 89.5133 20.4555 86.1159 20.4555Z" fill="#3D3A2C"/>
<path d="M97.6252 20.4442C94.6401 20.4442 92.6949 19.2655 92.6949 16.787V11.3379H94.8793V16.8175C94.8793 17.9505 95.8066 18.7047 97.7167 18.7047C99.4439 18.7047 100.474 17.9962 100.474 16.8175V11.3379H102.636V16.9905C102.636 19.2434 100.828 20.4442 97.6252 20.4442Z" fill="#3D3A2C"/>
<path d="M114.476 20.3185V14.3238L111.673 20.3185H109.546L106.823 14.3238V20.3185H104.766V11.3379H107.553L110.642 18.179L113.799 11.3379H116.542V20.3185H114.476Z" fill="#3D3A2C"/>
</svg>