<svg xmlns="http://www.w3.org/2000/svg" width="119" height="32" viewBox="0 0 119 32" fill="none">
<path d="M40.3984 22.9343C39.8631 22.9633 39.3336 22.8112 38.8954 22.5023C38.7123 22.3666 38.565 22.1883 38.4662 21.9829C38.3673 21.7774 38.3201 21.5511 38.3284 21.3233V12.9803C38.3241 12.945 38.3277 12.9091 38.3394 12.8754C38.3509 12.8418 38.37 12.8113 38.3952 12.7861C38.4204 12.7609 38.4509 12.7418 38.4845 12.7303C38.5182 12.7186 38.5541 12.715 38.5894 12.7193H40.1014C40.2724 12.7193 40.3534 12.8093 40.3534 12.9803V20.6753C40.3534 21.0173 40.5064 21.1883 40.8214 21.1883C40.9549 21.1938 41.0885 21.1786 41.2174 21.1433C41.3974 21.1433 41.4964 21.1973 41.5054 21.3593L41.6404 22.4843C41.6469 22.5171 41.6462 22.5509 41.6386 22.5835C41.6309 22.6159 41.6163 22.6465 41.5958 22.6729C41.5754 22.6994 41.5495 22.7212 41.52 22.7367C41.4903 22.7523 41.4578 22.7614 41.4244 22.7633C41.0932 22.8727 40.7471 22.9304 40.3984 22.9343Z" fill="#3D3A2C"/>
<path d="M48.9034 21.9713C48.1437 22.599 47.1889 22.9424 46.2034 22.9424C45.2179 22.9424 44.2632 22.599 43.5034 21.9713C42.8357 21.2972 42.461 20.3866 42.461 19.4378C42.461 18.4889 42.8357 17.5784 43.5034 16.9043C44.2646 16.2798 45.2188 15.9385 46.2034 15.9385C47.188 15.9385 48.1422 16.2798 48.9034 16.9043C49.5558 17.5846 49.92 18.4907 49.92 19.4333C49.92 20.3758 49.5558 21.282 48.9034 21.9623V21.9713ZM44.9254 20.7833C45.278 21.1027 45.7366 21.2795 46.2124 21.2795C46.6881 21.2795 47.1469 21.1027 47.4994 20.7833C47.8185 20.4164 47.9942 19.9465 47.9942 19.4603C47.9942 18.9741 47.8185 18.5042 47.4994 18.1373C47.1469 17.8179 46.6881 17.641 46.2124 17.641C45.7366 17.641 45.278 17.8179 44.9254 18.1373C44.6063 18.5042 44.4306 18.9741 44.4306 19.4603C44.4306 19.9465 44.6063 20.4164 44.9254 20.7833Z" fill="#3D3A2C"/>
<path d="M58.2452 16.1663C58.4162 16.1663 58.4972 16.2563 58.4972 16.4273V22.8803C58.513 23.3159 58.4315 23.7494 58.2587 24.1494C58.0859 24.5496 57.8261 24.9062 57.4982 25.1933C56.7705 25.8138 55.8347 26.1354 54.8792 26.0933C54.0163 26.1236 53.1648 25.888 52.4402 25.4183C52.1308 25.2151 51.8665 24.9504 51.6637 24.6408C51.4609 24.3312 51.3239 23.9831 51.2612 23.6183C51.2612 23.4383 51.2612 23.3573 51.5042 23.3573H53.0162C53.0804 23.3594 53.1427 23.3802 53.1953 23.4169C53.2481 23.4537 53.289 23.5048 53.3132 23.5643C53.4113 23.8376 53.6068 24.0652 53.8622 24.2033C54.1736 24.3639 54.5201 24.4444 54.8702 24.4373C55.0816 24.4489 55.2931 24.4182 55.4924 24.3471C55.6918 24.2761 55.8749 24.1659 56.0312 24.0233C56.1741 23.874 56.2851 23.6974 56.3579 23.5041C56.4306 23.3107 56.4633 23.1046 56.4542 22.8983V22.3313C55.9129 22.7294 55.254 22.9353 54.5822 22.9163C54.1121 22.9334 53.6434 22.8553 53.2041 22.6868C52.7649 22.5181 52.3643 22.2626 52.0262 21.9353C51.3774 21.264 51.0147 20.3669 51.0147 19.4333C51.0147 18.4997 51.3774 17.6026 52.0262 16.9313C52.3659 16.6069 52.767 16.3538 53.206 16.1869C53.645 16.0199 54.1129 15.9425 54.5822 15.9593C55.2734 15.941 55.9501 16.1602 56.4992 16.5803V16.4363C56.4951 16.4018 56.4987 16.3668 56.5098 16.3338C56.5208 16.301 56.5391 16.2709 56.5632 16.2459C56.5874 16.2209 56.6168 16.2016 56.6493 16.1894C56.6819 16.1772 56.7167 16.1724 56.7512 16.1753L58.2452 16.1663ZM54.7532 21.3143C54.9851 21.3215 55.2158 21.2776 55.4288 21.1858C55.6418 21.0941 55.8322 20.9567 55.9862 20.7833C56.2855 20.3969 56.4479 19.922 56.4479 19.4333C56.4479 18.9446 56.2855 18.4697 55.9862 18.0833C55.8327 17.9123 55.6435 17.7768 55.4321 17.6866C55.2206 17.5965 54.992 17.5537 54.7622 17.5613C54.5277 17.5539 54.2944 17.5975 54.0784 17.6892C53.8624 17.781 53.6689 17.9185 53.5112 18.0923C53.1798 18.4619 53.0054 18.9462 53.0252 19.4423C53.009 19.9335 53.1795 20.4126 53.5022 20.7833C53.6603 20.9566 53.8539 21.0939 54.0698 21.1855C54.2857 21.2771 54.5188 21.321 54.7532 21.3143Z" fill="#3D3A2C"/>
<path d="M66.2643 21.9711C65.5031 22.5956 64.5489 22.9369 63.5643 22.9369C62.5797 22.9369 61.6255 22.5956 60.8643 21.9711C60.2114 21.2893 59.8469 20.3817 59.8469 19.4376C59.8469 18.4936 60.2114 17.5859 60.8643 16.9041C61.6263 16.2812 62.5802 15.9409 63.5643 15.9409C64.5485 15.9409 65.5024 16.2812 66.2643 16.9041C66.9167 17.5844 67.281 18.4905 67.281 19.4331C67.281 20.3757 66.9167 21.2818 66.2643 21.9621V21.9711ZM62.2773 20.7831C62.4498 20.9473 62.6532 21.0755 62.8757 21.1605C63.0982 21.2454 63.3353 21.2855 63.5733 21.2781C63.8098 21.2842 64.0453 21.2437 64.2661 21.1588C64.487 21.0738 64.6889 20.9462 64.8603 20.7831C65.1742 20.4137 65.3466 19.9448 65.3466 19.4601C65.3466 18.9754 65.1742 18.5065 64.8603 18.1371C64.6889 17.9741 64.487 17.8464 64.2661 17.7615C64.0453 17.6766 63.8098 17.636 63.5733 17.6421C63.3353 17.6348 63.0982 17.6748 62.8757 17.7597C62.6532 17.8447 62.4498 17.973 62.2773 18.1371C61.9635 18.5065 61.7911 18.9754 61.7911 19.4601C61.7911 19.9448 61.9635 20.4137 62.2773 20.7831Z" fill="#3D3A2C"/>
<path d="M70.5304 14.6362C70.2925 14.8444 69.987 14.9592 69.6709 14.9592C69.3547 14.9592 69.0493 14.8444 68.8114 14.6362C68.7035 14.5344 68.6176 14.4116 68.5588 14.2754C68.5001 14.1393 68.4698 13.9925 68.4698 13.8442C68.4698 13.6958 68.5001 13.5491 68.5588 13.4129C68.6176 13.2767 68.7035 13.154 68.8114 13.0522C69.0518 12.8491 69.3562 12.7378 69.6709 12.7378C69.9855 12.7378 70.29 12.8491 70.5304 13.0522C70.6383 13.154 70.7242 13.2767 70.7829 13.4129C70.8417 13.5491 70.8719 13.6958 70.8719 13.8442C70.8719 13.9925 70.8417 14.1393 70.7829 14.2754C70.7242 14.4116 70.6383 14.5344 70.5304 14.6362ZM70.7194 22.9342C70.1844 22.9604 69.6558 22.8085 69.2164 22.5022C69.0361 22.3645 68.8913 22.1855 68.7943 21.9804C68.6971 21.7753 68.6505 21.55 68.6584 21.3232V16.4272C68.654 16.3919 68.6577 16.356 68.6693 16.3223C68.6809 16.2887 68.6999 16.2581 68.7251 16.2329C68.7503 16.2077 68.7809 16.1887 68.8145 16.1771C68.8482 16.1655 68.8841 16.1618 68.9194 16.1662H70.4314C70.6024 16.1662 70.6834 16.2562 70.6834 16.4272V20.6752C70.6834 21.0172 70.8364 21.1882 71.1424 21.1882C71.2789 21.1931 71.4153 21.1779 71.5474 21.1432C71.7274 21.1432 71.8264 21.1972 71.8354 21.3592L71.9704 22.4842C71.9768 22.517 71.9762 22.5508 71.9686 22.5833C71.9609 22.6158 71.9463 22.6464 71.9258 22.6728C71.9054 22.6993 71.8795 22.721 71.8499 22.7366C71.8203 22.7522 71.7877 22.7613 71.7544 22.7632C71.4203 22.8732 71.0712 22.9309 70.7194 22.9342Z" fill="#3D3A2C"/>
<path d="M77.5324 15.9503C78.0047 15.9317 78.4759 16.0081 78.9181 16.1751C79.3602 16.3421 79.7644 16.5962 80.1064 16.9223C80.7429 17.6054 81.0968 18.5043 81.0968 19.4378C81.0968 20.3714 80.7429 21.2703 80.1064 21.9533C79.766 22.2825 79.3624 22.5391 78.92 22.7076C78.4775 22.8763 78.0055 22.9534 77.5324 22.9343C76.8585 22.9494 76.198 22.744 75.6514 22.3493V25.5983C75.6514 25.7693 75.5614 25.8503 75.3904 25.8503H73.8784C73.844 25.8568 73.8084 25.8547 73.7748 25.8444C73.7414 25.834 73.7108 25.8156 73.686 25.7908C73.6613 25.7659 73.6428 25.7355 73.6325 25.7019C73.622 25.6684 73.62 25.6329 73.6264 25.5983V18.2183C73.637 18.1462 73.6306 18.0725 73.6077 18.0032C73.5848 17.934 73.5459 17.871 73.4943 17.8195C73.4427 17.7679 73.3798 17.7291 73.3105 17.7061C73.2413 17.6832 73.1676 17.6768 73.0954 17.6873H72.7984C72.6004 17.6873 72.5014 17.6153 72.5014 17.4713V16.4093C72.4967 16.3436 72.5147 16.2783 72.5525 16.2243C72.5901 16.1702 72.6452 16.1307 72.7084 16.1123C73.0197 15.9992 73.3492 15.9443 73.6804 15.9503C74.0107 15.9211 74.3422 15.9912 74.6324 16.1515C74.9226 16.3119 75.1584 16.5552 75.3094 16.8503C75.5993 16.5571 75.946 16.3261 76.3282 16.1713C76.7105 16.0166 77.1202 15.9413 77.5324 15.9503ZM76.1284 20.7833C76.2889 20.9511 76.4817 21.0846 76.6952 21.1757C76.9086 21.2669 77.1383 21.3139 77.3704 21.3139C77.6025 21.3139 77.8323 21.2669 78.0457 21.1757C78.2592 21.0846 78.452 20.9511 78.6124 20.7833C78.9505 20.4063 79.128 19.9123 79.1074 19.4063C79.131 18.9 78.953 18.4048 78.6124 18.0293C78.452 17.8617 78.2592 17.7282 78.0457 17.637C77.8323 17.5458 77.6025 17.4988 77.3704 17.4988C77.1383 17.4988 76.9086 17.5458 76.6952 17.637C76.4817 17.7282 76.2889 17.8617 76.1284 18.0293C75.801 18.4115 75.6305 18.9035 75.6514 19.4063C75.6332 19.9088 75.8033 20.3999 76.1284 20.7833Z" fill="#3D3A2C"/>
<path d="M85.3444 22.9343C84.5365 22.9675 83.7354 22.7743 83.0314 22.3763C82.749 22.2062 82.5085 21.9747 82.3277 21.6989C82.147 21.4231 82.0307 21.1102 81.9874 20.7833C81.9874 20.6033 82.0504 20.5133 82.2484 20.5133H83.5714C83.6343 20.5158 83.6954 20.5356 83.7478 20.5706C83.8002 20.6055 83.8419 20.6542 83.8684 20.7113C84.0574 21.1973 84.5524 21.4403 85.3444 21.4403C85.6207 21.453 85.8957 21.3973 86.1454 21.2783C86.2316 21.2394 86.3055 21.1779 86.3594 21.1002C86.4133 21.0225 86.4451 20.9316 86.4514 20.8373C86.4514 20.6033 86.3074 20.4413 86.0194 20.3333C85.6778 20.2197 85.3247 20.1441 84.9664 20.1083C84.542 20.0603 84.1212 19.9851 83.7064 19.8833C83.303 19.7921 82.9363 19.582 82.6534 19.2803C82.4868 19.0753 82.3642 18.8382 82.2931 18.5837C82.2221 18.3293 82.2042 18.0629 82.2405 17.8013C82.2768 17.5395 82.3666 17.2881 82.5042 17.0626C82.6418 16.8371 82.8243 16.6423 83.0404 16.4903C83.6891 16.0771 84.4502 15.8758 85.2184 15.9143C85.9621 15.8892 86.698 16.0732 87.3424 16.4453C87.6021 16.5925 87.8257 16.7956 87.997 17.04C88.1682 17.2845 88.2828 17.564 88.3324 17.8583C88.3324 18.0383 88.2514 18.1283 88.0894 18.1283H86.7574C86.7013 18.1317 86.6455 18.118 86.5974 18.0891C86.5492 18.0602 86.5109 18.0174 86.4874 17.9663C86.3984 17.7532 86.2308 17.5824 86.0194 17.4893C85.7809 17.3646 85.5145 17.3026 85.2454 17.3093C84.9816 17.295 84.7184 17.3477 84.4804 17.4623C84.3965 17.4947 84.3243 17.5514 84.2729 17.6252C84.2216 17.699 84.1936 17.7865 84.1924 17.8763C84.1981 17.9994 84.2432 18.1174 84.321 18.213C84.3988 18.3086 84.505 18.3766 84.6244 18.4073C84.97 18.5376 85.3294 18.6282 85.6954 18.6773C86.1163 18.7328 86.5339 18.8109 86.9464 18.9113C87.3498 19.0027 87.7165 19.2126 87.9994 19.5143C88.1508 19.6806 88.2676 19.875 88.3433 20.0867C88.419 20.2983 88.452 20.5229 88.4404 20.7473C88.4481 21.0585 88.3751 21.3663 88.2284 21.6408C88.0817 21.9152 87.8664 22.1469 87.6034 22.3133C86.931 22.7451 86.143 22.9616 85.3444 22.9343Z" fill="#3D3A2C"/>
<path d="M97.9534 22.4843C97.9588 22.5162 97.957 22.5489 97.9498 22.5803C97.9417 22.6118 97.9282 22.6413 97.9084 22.6673C97.8895 22.6933 97.8652 22.7152 97.8373 22.7317C97.8094 22.7481 97.7788 22.7589 97.7464 22.7633C97.4179 22.8705 97.075 22.9282 96.7294 22.9343C96.3874 22.9697 96.0418 22.9163 95.7268 22.7791C95.4109 22.6419 95.1364 22.4257 94.9294 22.1513C94.294 22.6978 93.4714 22.9783 92.6344 22.9343C92.2456 22.9522 91.8577 22.8885 91.495 22.7475C91.1323 22.6065 90.8029 22.3911 90.5284 22.1153C90.2557 21.8263 90.0444 21.4852 89.9067 21.1125C89.7691 20.7398 89.7082 20.3432 89.7274 19.9463V16.4273C89.7274 16.2563 89.8084 16.1663 89.9794 16.1663H91.4914C91.6624 16.1663 91.7434 16.2563 91.7434 16.4273V19.6763C91.7272 20.0811 91.8649 20.4769 92.1304 20.7833C92.2627 20.9237 92.4238 21.034 92.602 21.107C92.7802 21.18 92.9728 21.2138 93.1654 21.2063C93.3625 21.2149 93.5596 21.1844 93.745 21.1163C93.9304 21.0484 94.1005 20.9444 94.2454 20.8103C94.3822 20.669 94.4893 20.501 94.5586 20.3168C94.6288 20.1326 94.6594 19.936 94.6504 19.7393V16.4273C94.6504 16.2563 94.7314 16.1663 94.9024 16.1663H96.4324C96.6034 16.1663 96.6844 16.2563 96.6844 16.4273V20.6663C96.6844 21.0173 96.8374 21.1883 97.1344 21.1883C97.2739 21.1937 97.4134 21.1785 97.5484 21.1433C97.5826 21.1337 97.6186 21.132 97.6528 21.1383C97.6879 21.1445 97.7203 21.1586 97.7491 21.1794C97.7779 21.2001 97.8013 21.2271 97.8184 21.2583C97.8346 21.2894 97.8436 21.324 97.8454 21.3593L97.9534 22.4843Z" fill="#3D3A2C"/>
<path d="M112.254 22.4842C112.262 22.5165 112.263 22.5501 112.257 22.5827C112.25 22.6152 112.236 22.646 112.217 22.6726C112.197 22.6992 112.172 22.7212 112.142 22.7369C112.113 22.7526 112.081 22.7616 112.047 22.7632C111.713 22.872 111.364 22.9297 111.012 22.9342C110.477 22.9619 109.949 22.8099 109.509 22.5022C109.319 22.3705 109.166 22.194 109.06 21.9883C108.955 21.7827 108.902 21.5542 108.906 21.3232V19.2082C108.925 18.8047 108.79 18.4089 108.528 18.1012C108.402 17.9606 108.246 17.8497 108.072 17.7765C107.897 17.7034 107.709 17.6699 107.52 17.6782C107.35 17.6718 107.181 17.7041 107.024 17.7727C106.869 17.8413 106.731 17.9445 106.62 18.0742C106.383 18.3758 106.261 18.7527 106.278 19.1362V22.4572C106.278 22.6282 106.197 22.7182 106.026 22.7182H104.505C104.47 22.7226 104.434 22.7189 104.401 22.7073C104.367 22.6957 104.336 22.6766 104.311 22.6514C104.286 22.6263 104.267 22.5957 104.255 22.5621C104.243 22.5284 104.24 22.4926 104.244 22.4572V19.2082C104.264 18.8091 104.139 18.4161 103.893 18.1012C103.784 17.9689 103.646 17.8625 103.49 17.7894C103.335 17.7163 103.165 17.6783 102.993 17.6782C102.81 17.6709 102.627 17.7023 102.456 17.7706C102.285 17.8388 102.131 17.9423 102.003 18.0742C101.746 18.3662 101.614 18.7476 101.634 19.1362V22.4572C101.639 22.4926 101.635 22.5284 101.624 22.5621C101.612 22.5957 101.593 22.6263 101.568 22.6514C101.543 22.6766 101.512 22.6957 101.479 22.7073C101.444 22.7189 101.408 22.7226 101.373 22.7182H99.9063C99.7353 22.7182 99.6543 22.6282 99.6543 22.4572V18.2182C99.6651 18.1461 99.6588 18.0724 99.6354 18.0031C99.6129 17.9339 99.5742 17.8709 99.522 17.8193C99.4707 17.7678 99.4077 17.729 99.3384 17.706C99.2691 17.6831 99.1953 17.6767 99.1233 17.6872H98.8263C98.6283 17.6872 98.5293 17.6152 98.5293 17.4712V16.4092C98.5248 16.3435 98.5428 16.2782 98.5806 16.2242C98.6184 16.1701 98.6733 16.1306 98.7363 16.1122C99.0477 15.9991 99.3771 15.9442 99.7083 15.9502C100.026 15.9231 100.346 15.9865 100.629 16.133C100.913 16.2795 101.148 16.5032 101.31 16.7782C101.614 16.4905 101.974 16.2684 102.367 16.1259C102.76 15.9834 103.179 15.9237 103.596 15.9502C104.002 15.9304 104.406 16.0065 104.777 16.1723C105.148 16.338 105.474 16.5888 105.729 16.9042C106.027 16.5805 106.394 16.3271 106.801 16.162C107.209 15.997 107.648 15.9248 108.087 15.9502C108.48 15.9319 108.872 15.9951 109.239 16.1362C109.607 16.2771 109.94 16.4927 110.22 16.7692C110.494 17.0577 110.705 17.3987 110.843 17.7716C110.981 18.1443 111.042 18.5413 111.021 18.9382V20.6752C111.021 21.0172 111.174 21.1882 111.462 21.1882C111.602 21.1947 111.741 21.1796 111.876 21.1432C112.063 21.1432 112.162 21.2152 112.173 21.3592L112.254 22.4842Z" fill="#3D3A2C"/>
<path d="M6.72035 14.9961C7.38434 12.3274 8.92214 9.95739 11.0889 8.26372C13.2556 6.57001 15.9267 5.6499 18.6768 5.6499C21.427 5.6499 24.0981 6.57001 26.2648 8.26372C28.4316 9.95739 29.9693 12.3274 30.6333 14.9961H29.5533C27.7315 14.9693 25.947 15.5138 24.4503 16.5531C24.3639 16.6157 24.2738 16.6728 24.1803 16.7241H24.0543C23.9609 16.6728 23.8707 16.6157 23.7843 16.5531C22.2745 15.5378 20.4963 14.9956 18.6768 14.9956C16.8574 14.9956 15.0792 15.5378 13.5693 16.5531C13.4829 16.6157 13.3928 16.6728 13.2993 16.7241H13.1733C13.0799 16.6728 12.9897 16.6157 12.9033 16.5531C11.4067 15.5138 9.62222 14.9693 7.80035 14.9961H6.72035ZM27.6093 20.6391C28.1637 20.2074 28.8509 19.9815 29.5533 20.0001H31.0023V17.1111H29.5533C28.316 17.0962 27.1071 17.4813 26.1063 18.2091C25.5432 18.6243 24.862 18.8483 24.1623 18.8483C23.4627 18.8483 22.7815 18.6243 22.2183 18.2091C21.1923 17.4949 19.972 17.1119 18.7218 17.1119C17.4717 17.1119 16.2514 17.4949 15.2253 18.2091C14.6622 18.6243 13.981 18.8483 13.2813 18.8483C12.5817 18.8483 11.9005 18.6243 11.3373 18.2091C10.3243 17.4719 9.09797 17.0864 7.84535 17.1111H6.35135V20.0001H7.80035C8.50281 19.9815 9.18995 20.2074 9.74435 20.6391C10.7685 21.3539 11.9874 21.7371 13.2363 21.7371C14.4853 21.7371 15.7041 21.3539 16.7283 20.6391C17.2835 20.2088 17.9701 19.983 18.6723 20.0001C19.3751 19.98 20.0627 20.2061 20.6163 20.6391C21.6424 21.3535 22.8627 21.7363 24.1128 21.7363C25.363 21.7363 26.5833 21.3535 27.6093 20.6391ZM27.6093 25.8051C28.1637 25.3734 28.8509 25.1475 29.5533 25.1661H31.0023V22.2771H29.5533C28.316 22.2622 27.1071 22.6473 26.1063 23.3751C25.5432 23.7903 24.862 24.0143 24.1623 24.0143C23.4627 24.0143 22.7815 23.7903 22.2183 23.3751C21.1923 22.6609 19.972 22.278 18.7218 22.278C17.4717 22.278 16.2514 22.6609 15.2253 23.3751C14.6622 23.7903 13.981 24.0143 13.2813 24.0143C12.5817 24.0143 11.9005 23.7903 11.3373 23.3751C10.3243 22.638 9.09797 22.2524 7.84535 22.2771H6.35135V25.1661H7.80035C8.50281 25.1475 9.18995 25.3734 9.74435 25.8051C10.7685 26.5199 11.9874 26.9031 13.2363 26.9031C14.4853 26.9031 15.7041 26.5199 16.7283 25.8051C17.2835 25.3748 17.9701 25.149 18.6723 25.1661C19.3751 25.146 20.0627 25.3721 20.6163 25.8051C21.6424 26.5195 22.8627 26.9023 24.1128 26.9023C25.363 26.9023 26.5833 26.5195 27.6093 25.8051Z" fill="#3D3A2C"/>
</svg>