<svg width="75" height="27" viewBox="0 0 75 27" fill="none" xmlns="http://www.w3.org/2000/svg">
<g clip-path="url(#clip0_360_449)">
<path d="M74.7452 26.5889V4.31134L70.3704 0H0.25V16.1741L4.44959 21.5733H45.3936L47.7927 26.5944H74.75L74.7452 26.5889Z" fill="#FF4100"/>
<path d="M1.76855 7.79905C1.76855 11.4799 4.75269 14.4647 8.43424 14.4647C12.1151 14.4647 15.0999 11.4806 15.0999 7.79905V1.13406H1.76855V7.79905Z" fill="white"/>
<path d="M39.7912 7.37204H30.916V14.4647H39.7912V7.37204Z" fill="white"/>
<path d="M39.7912 1.13406H30.916V5.55371H39.7912V1.13406Z" fill="white"/>
<path d="M16.1819 1.13406V14.4647L18.648 12.0649L29.5132 14.4647V1.13406L27.0472 5.33366L16.1819 1.13406Z" fill="white"/>
<path d="M54.526 1.13406H41.1953V7.37206H43.4234V14.4647H52.2979V7.37206H54.526V1.13406Z" fill="white"/>
<path d="M62.5942 1.13406H55.9285V1.56106C55.9285 5.24191 58.9127 8.22674 62.5942 8.22674H54.0798V14.4647H69.2599V1.13406H62.5942Z" fill="white"/>
<path d="M47.6973 20.3875V16.766H49.7212V17.3647H48.4278V18.2166H49.6453V18.8154H48.4278V20.3875H47.6973Z" fill="white"/>
<path d="M50.5525 16.766H52.5764V17.3647H51.283V18.2166H52.5005V18.8154H51.283V19.7894H52.6268V20.3882H50.5525V16.7666V16.766Z" fill="white"/>
<path d="M53.3574 19.2569H54.0879V19.3631C54.0879 19.5494 54.1224 19.6887 54.1921 19.7818C54.261 19.8749 54.3873 19.9212 54.5701 19.9212C54.6915 19.9212 54.795 19.8825 54.8798 19.8046C54.964 19.7266 55.0067 19.617 55.0067 19.4749C55.0067 19.2417 54.9157 19.0879 54.7329 19.0134L54.19 18.7954C53.9161 18.6871 53.7175 18.5539 53.594 18.3946C53.4705 18.2359 53.4091 18.0242 53.4091 17.7607C53.4091 17.4123 53.5071 17.1481 53.703 16.9667C53.8989 16.786 54.1748 16.6956 54.5294 16.6956C54.8839 16.6956 55.1474 16.7749 55.3482 16.9343C55.5496 17.0936 55.6496 17.3385 55.6496 17.6696V17.771H54.9495C54.9495 17.4123 54.8177 17.2336 54.5535 17.2336C54.2762 17.2336 54.1376 17.3737 54.1376 17.6544C54.1376 17.7731 54.1631 17.8683 54.2134 17.9407C54.2645 18.0131 54.3638 18.0821 54.5128 18.1463L55.0757 18.3898C55.3392 18.5084 55.5199 18.6395 55.6186 18.783C55.7165 18.9264 55.7655 19.1155 55.7655 19.3486C55.7655 20.0888 55.3461 20.4592 54.508 20.4592C54.1058 20.4592 53.8133 20.3695 53.6305 20.1902C53.4477 20.0108 53.3567 19.7487 53.3567 19.4038V19.2569H53.3574Z" fill="white"/>
<path d="M56.4463 16.766H58.7592V17.3647H57.968V20.3875H57.2375V17.3647H56.4463V16.766Z" fill="white"/>
<path d="M60.3459 20.3875H59.6154V16.766H60.3459V20.3875Z" fill="white"/>
<path d="M61.1573 16.766H61.9382L62.4508 19.4438H62.4659L63.0033 16.766H63.7593L62.9274 20.3875H61.9893L61.1573 16.766Z" fill="white"/>
<path d="M64.0488 20.3875L65.0077 16.766H65.9106L66.8695 20.3875H66.1086L65.941 19.6218H64.9773L64.8097 20.3875H64.0488ZM65.454 17.3951L65.1042 19.023H65.8141L65.4643 17.3951H65.454Z" fill="white"/>
<path d="M69.6527 20.3875H67.6288V16.766H68.3593V19.7887H69.6527V20.3875Z" fill="white"/>
</g>
<defs>
<clipPath id="clip0_360_449">
<rect width="74.5" height="26.5944" fill="white" transform="translate(0.25)"/>
</clipPath>
</defs>
</svg>
