<svg width="21" height="13" viewBox="0 0 21 13" fill="none" xmlns="http://www.w3.org/2000/svg">
<path d="M20.0177 6.66907C20.0867 6.51331 20.0935 6.33919 20.0368 6.18401C19.991 6.11903 19.9359 6.06193 19.8726 6.01389L14.4218 0.369485C14.1831 0.122285 13.7806 0.124339 13.5224 0.373626C13.3985 0.493332 13.325 0.655328 13.3184 0.823833C13.3117 0.992336 13.3724 1.15372 13.4869 1.27232L17.8926 5.83457L0.984065 5.91242C0.814661 5.91239 0.648997 5.98015 0.524412 6.10046C0.399828 6.22077 0.326336 6.38396 0.320237 6.55347C0.311811 6.72098 0.370272 6.88216 0.482353 7.00199C0.599431 7.12239 0.76177 7.18943 0.933427 7.18844L17.842 7.11059L13.0739 11.7151C12.9499 11.8348 12.8767 11.9966 12.8698 12.1653C12.8634 12.334 12.9238 12.4952 13.0384 12.6138C13.1529 12.7324 13.3121 12.7986 13.4807 12.7979C13.6495 12.7969 13.8138 12.7293 13.9378 12.6096L19.8742 6.87686C19.9321 6.81482 19.98 6.745 20.0175 6.66942L20.0177 6.66907Z" fill="black"/>
</svg>
